# AST/ASF file generated using VICON BodyLanguage
# -----------------------------------------------
:version 1.10
:name VICON
:units
  mass 1.0
  length 0.45
  angle deg
:documentation
   .ast/.asf automatically generated from VICON data using
   VICON BodyBuilder and BodyLanguage model FoxedUp or BRILLIANT.MOD
:root
   order TX TY TZ RX RY RZ
   axis XYZ
   position 0 0 0  
   orientation 0 0 0 
:bonedata
  begin
     id 1 
     name lhipjoint
     direction 0.576517 -0.752066 0.319413 
     length 2.45433 
     axis 0 0 0  XYZ
  end
  begin
     id 2 
     name lfemur
     direction 0.34202 -0.939693 0  
     length 7.54459  
     axis 0 0 20  XYZ
    dof rx ry rz
    limits (-160.0 20.0)
           (-70.0 70.0)
           (-60.0 70.0)
  end
  begin
     id 3 
     name ltibia
     direction 0.34202 -0.939693 0   
     length 7.73986   
     axis 0 0 20   XYZ
    dof rx
    limits (-10.0 170.0)
  end
  begin
     id 4 
     name lfoot
     direction 0.090693 -0.249177 0.964202   
     length 2.28437   
     axis -90 7.62852e-016 20   XYZ
    dof rx rz
    limits (-45.0 90.0)
           (-70.0 20.0)
  end
  begin
     id 5 
     name ltoes
     direction 1.5356e-011 -4.21928e-011 1   
     length 1.14243   
     axis -90 7.62852e-016 20   XYZ
    dof rx
    limits (-90.0 20.0)
  end
  begin
     id 6 
     name rhipjoint
     direction -0.573937 -0.753736 0.320122   
     length 2.44889  
     axis 0 0 0  XYZ 
  end
  begin
     id 7 
     name rfemur
     direction -0.34202 -0.939693 0   
     length 7.50166   
     axis 0 0 -20   XYZ
    dof rx ry rz
    limits (-160.0 20.0)
           (-70.0 70.0)
           (-70.0 60.0)
  end
  begin
     id 8 
     name rtibia
     direction -0.34202 -0.939693 0   
     length 7.54266   
     axis 0 0 -20   XYZ
    dof rx
    limits (-10.0 170.0)
 end
 begin
     id 9 
     name rfoot
     direction -0.114017 -0.31326 0.942798   
     length 2.34212  
     axis -90 -7.62852e-016 -20   XYZ
    dof rx rz
    limits (-45.0 90.0)
           (-20.0 70.0)
  end
  begin
     id 10 
     name rtoes
     direction -1.53557e-011 -4.21867e-011 1   
     length 1.16246   
     axis -90 -7.62852e-016 -20   XYZ
    dof rx
    limits (-90.0 20.0)
  end
  begin
     id 11 
     name lowerback
     direction -0.0228371 0.999155 -0.034167   
     length 2.0537   
     axis 0 0 0   XYZ
    dof rx ry rz
    limits (-20.0 45.0)
           (-30.0 30.0)
           (-30.0 30.0)
  end
  begin
     id 12 
     name upperback
     direction 0.0198981 0.999794 0.00389455   
     length 2.05302   
     axis 0 0 0   XYZ
    dof rx ry rz
    limits (-20.0 45.0)
           (-30.0 30.0)
           (-30.0 30.0)
  end
  begin
     id 13 
     name thorax
     direction 0.0304566 0.99935 0.0192987   
     length 2.05315   
     axis 0 0 0   XYZ
    dof rx ry rz
    limits (-20.0 45.0)
           (-30.0 30.0)
           (-30.0 30.0)
  end
  begin
     id 14 
     name lowerneck
     direction -0.0196762 0.99417 0.106017   
     length 1.82056   
     axis 0 0 0   XYZ
    dof rx ry rz
    limits (-20.0 45.0)
           (-30.0 30.0)
           (-30.0 30.0)
  end
  begin
     id 15 
     name upperneck
     direction 0.00517787 0.9802 -0.197944   
     length 1.83835   
     axis 0 0 0   XYZ
    dof rx ry rz
    limits (-20.0 45.0)
           (-30.0 30.0)
           (-30.0 30.0)
  end
  begin
     id 16
     name head
     direction 0.00211419 0.996945 -0.078081  
     length 1.85629  
     axis 0 0 0   XYZ
    dof rx ry rz
    limits (-20.0 45.0)
           (-30.0 30.0)
           (-30.0 30.0)
  end
  begin
     id 17 
     name lclavicle
     direction 0.930001 0.365811 -0.0357824  
     length 3.81961  
     axis 0 0 0   XYZ
    dof ry rz
    limits (-20.0 10.0)
           (0.0 20.0)
  end
  begin
     id 18 
     name lhumerus
     direction 1 -4.48968e-011 -3.06644e-027   
     length 5.14507   
     axis 180 -30 -90   XYZ
    dof rx ry rz
    limits (-60.0 90.0)
           (-90.0 90.0)
           (-90.0 90.0)
  end
  begin
     id 19
     name lradius
     direction 1 -4.48965e-011 9.06925e-028   
     length 3.50646   
     axis 180 -30 -90   XYZ
    dof rx
    limits (-10.0 170.0)
  end
  begin
     id 20
     name lwrist
     direction 1 -4.48957e-011 1.03922e-027   
     length 1.75323   
     axis -2.56395e-016 90 90   XYZ
    dof ry
    limits (-180.0 0.0)
 end
  begin
     id 21 
     name lhand
     direction 1 -4.48967e-011 2.08017e-027   
     length 0.629969   
     axis -1.32723e-015 90 90   XYZ
    dof rx rz
    limits (-90.0 90.0)
           (-45.0 45.0)
  end
  begin
     id 22 
     name lfingers
     direction 1 -4.49089e-011 4.20095e-027   
     length 0.507897   
     axis -2.6545e-015 90 90   XYZ
    dof rx
    limits (0.0 90.0)
  end
  begin
     id 23
     name lthumb
     direction 0.707107 -6.35001e-011 0.707107   
     length 0.729241   
     axis -90 45 5.05613e-014   XYZ
    dof rx rz
    limits (-45.0 45.0)
           (-45.0 45.0)
  end
  begin
     id 24 
     name rclavicle
     direction -0.881882 0.464123 -0.0829113   
     length 3.47515  
     axis 0 0 0   XYZ 
    dof ry rz
    limits (-10.0 20.0)
           (-20.0 0.0)
  end
  begin
     id 25 
     name rhumerus
     direction -1 -4.48961e-011 -1.55672e-027  
     length 5.232   
     axis 180 30 90   XYZ
    dof rx ry rz
    limits (-90.0 60.0)
           (-90.0 90.0)
           (-90.0 90.0)
  end
  begin
     id 26 
     name rradius
     direction -1 -4.48963e-011 6.18178e-029   
     length 3.65641   
     axis 180 30 90   XYZ
    dof rx
    limits (-10.0 170.0)
  end
  begin
     id 27 
     name rwrist
     direction -1 -4.48982e-011 1.04136e-027   
     length 1.8282   
     axis -2.56395e-016 -90 -90   XYZ
    dof ry
    limits (-180.0 0.0)
  end
  begin
     id 28
     name rhand
     direction -1 -4.48929e-011 2.07378e-027   
     length 0.656807   
     axis -1.32723e-015 -90 -90   XYZ
    dof rx rz
    limits (-90.0 90.0)
           (-45.0 45.0)
  end
  begin
     id 29
     name rfingers
     direction -1 -4.489e-011 4.13816e-027   
     length 0.529535   
     axis -2.6545e-015 -90 -90   XYZ
    dof rx
    limits (0.0 90.0)
  end
  begin
     id 30
     name rthumb
     direction -0.707107 -6.34843e-011 0.707107   
     length 0.760309   
     axis -90 -45 -5.05613e-014   XYZ
    dof rx rz
    limits (-45.0 45.0)
           (-45.0 45.0)
  end
:hierarchy
  begin
    root lhipjoint rhipjoint lowerback
    lhipjoint lfemur
    lfemur ltibia
    ltibia lfoot
    lfoot ltoes
    rhipjoint rfemur
    rfemur rtibia
    rtibia rfoot
    rfoot rtoes
    lowerback upperback
    upperback thorax
    thorax lowerneck lclavicle rclavicle
    lowerneck upperneck
    upperneck head
    lclavicle lhumerus
    lhumerus lradius
    lradius lwrist
    lwrist lhand lthumb
    lhand lfingers
    rclavicle rhumerus
    rhumerus rradius
    rradius rwrist
    rwrist rhand rthumb
    rhand rfingers
  end

#!OML:ASF H:\ManfredETheater\Project 1\Capture day 1\Session 1\subject.ASF
:FULLY-SPECIFIED
:DEGREES
31
root -1.46137 15.9109 -16.1207 1.02268 1.88222 -9.70989
lowerback 21.3988 -1.93727 6.46722
upperback 1.03926 -0.305356 5.88105
thorax -10.9078 -0.290179 2.95789
lowerneck -17.6558 -0.391777 -0.832186
upperneck 8.22162 0.211348 -4.31617
head 5.34628 -0.254828 -1.21286
rclavicle 4.77083e-015 -1.03368e-014
rhumerus -39.7078 -5.94774 -81.5581
rradius 64.7896
rwrist 3.57823
rhand -26.4163 8.83473
rfingers 7.12502
rthumb 0.143644 -21.145
lclavicle 4.77083e-015 -1.03368e-014
lhumerus -36.2345 -14.3864 84.3082
lradius 115.593
lwrist 6.39474
lhand -22.9328 -5.11638
lfingers 7.12502
lthumb 3.50796 24.8345
rfemur -18.3466 -8.25476 17.4976
rtibia 92.9988
rfoot -5.73152 -9.99574
rtoes 2.49952
lfemur -51.5435 3.51396 -24.9879
ltibia 55.0794
lfoot -4.58061 -2.13036
ltoes 6.5761
32
root -1.4897 15.8187 -15.4644 0.181488 2.48435 -8.6241
lowerback 21.9478 -2.3425 5.33664
upperback 1.03176 -1.12039 5.34963
thorax -11.1998 -0.630164 3.27952
lowerneck -17.3523 -0.136727 -0.777402
upperneck 7.93897 0.507477 -4.19916
head 5.21339 -0.091224 -1.1536
rclavicle 1.95803e-014 -1.03368e-014
rhumerus -41.4393 -8.87469 -78.5766
rradius 61.9422
rwrist 2.23805
rhand -26.5719 8.1928
rfingers 7.12502
rthumb -0.0066227 -21.7869
lclavicle 1.95803e-014 -1.03368e-014
lhumerus -34.0268 -12.8454 82.4066
lradius 117.466
lwrist 5.52879
lhand -23.3178 -4.3089
lfingers 7.12502
lthumb 3.13623 25.6478
rfemur -21.3825 -9.36971 15.6452
rtibia 96.0974
rfoot -7.72488 -11.2995
rtoes 5.33822
lfemur -50.3798 2.78393 -25.9157
ltibia 58.4919
lfoot -6.03811 -2.07808
ltoes 9.43496
33
root -1.52086 15.7169 -14.8189 -0.565309 3.11018 -7.3153
lowerback 22.489 -2.69876 4.04723
upperback 1.02515 -1.94004 4.73512
thorax -11.4657 -0.962221 3.61007
lowerneck -17.0866 0.0962744 -0.757708
upperneck 7.65702 0.78623 -4.1029
head 5.08661 0.060628 -1.09841
rclavicle 5.46658e-015 1.66979e-014
rhumerus -43.3365 -11.828 -75.1443
rradius 59.4828
rwrist 0.533947
rhand -26.893 7.41953
rfingers 7.12502
rthumb -0.316778 -22.56
lclavicle 5.46658e-015 1.66979e-014
lhumerus -31.708 -11.0857 80.3801
lradius 119.165
lwrist 4.79896
lhand -23.8068 -3.38928
lfingers 7.12502
lthumb 2.66395 26.5738
rfemur -24.8626 -10.2854 13.6708
rtibia 98.6549
rfoot -9.71995 -12.1111
rtoes 6.66735
lfemur -49.1262 1.74172 -26.9461
ltibia 61.9402
lfoot -8.15333 -1.69666
ltoes 11.1339
34
root -1.55378 15.6108 -14.1801 -1.18067 3.67187 -5.86499
lowerback 22.9615 -2.98355 2.68276
upperback 1.01419 -2.7163 4.06154
thorax -11.6804 -1.2684 3.90784
lowerneck -16.8963 0.313119 -0.773565
upperneck 7.44136 1.05883 -4.03164
head 4.99266 0.204497 -1.04745
rclavicle 8.64713e-014 -2.14687e-014
rhumerus -45.4456 -14.6974 -71.2871
rradius 57.4478
rwrist -1.34715
rhand -27.4097 6.59514
rfingers 7.12502
rthumb -0.815821 -23.383
lclavicle 8.64713e-014 -2.14687e-014
lhumerus -29.3737 -9.10222 78.3144
lradius 120.626
lwrist 4.33432
lhand -24.3931 -2.40657
lfingers 7.12502
lthumb 2.09774 27.5629
rfemur -28.7549 -10.8664 11.7254
rtibia 100.492
rfoot -11.4931 -12.5536
rtoes 6.8113
lfemur -47.7758 0.586416 -28.0748
ltibia 65.2428
lfoot -10.7006 -1.06265
ltoes 11.7211
35
root -1.58521 15.5106 -13.5431 -1.66056 4.07837 -4.38345
lowerback 23.3205 -3.18814 1.35112
upperback 0.993487 -3.40389 3.36523
thorax -11.8343 -1.5339 4.13088
lowerneck -16.7954 0.526301 -0.826318
upperneck 7.34034 1.34468 -3.99128
head 4.94919 0.348511 -1.00015
rclavicle -5.39203e-014 4.85035e-014
rhumerus -47.7667 -17.3707 -67.0418
rradius 55.8282
rwrist -3.17797
rhand -28.0488 5.84292
rfingers 7.12502
rthumb -1.43303 -24.132
lclavicle -5.39203e-014 4.85035e-014
lhumerus -27.1512 -6.91572 76.3004
lradius 121.799
lwrist 4.19182
lhand -25.1132 -1.40427
lfingers 7.12502
lthumb 1.40224 28.5709
rfemur -32.9352 -10.9869 9.96783
rtibia 101.413
rfoot -12.907 -12.7612
rtoes 5.99266
lfemur -46.2804 -0.529524 -29.2172
ltibia 68.2443
lfoot -13.592 -0.230984
ltoes 11.2057
36
root -1.61221 15.4227 -12.9026 -2.03718 4.24318 -2.97559
lowerback 23.5409 -3.31091 0.144547
upperback 0.967507 -3.96569 2.68199
thorax -11.9204 -1.74741 4.24879
lowerneck -16.7873 0.754185 -0.907377
upperneck 7.37491 1.66876 -3.99414
head 4.96379 0.503769 -0.958854
rclavicle -8.05078e-015 -1.19271e-015
rhumerus -50.2531 -19.7488 -62.4678
rradius 54.601
rwrist -4.74196
rhand -28.7057 5.21833
rfingers 7.12502
rthumb -2.06751 -24.7514
lclavicle -8.05078e-015 -1.19271e-015
lhumerus -25.1589 -4.57648 74.4064
lradius 122.653
lwrist 4.38011
lhand -25.958 -0.412169
lfingers 7.12502
lthumb 0.586331 29.5668
rfemur -37.1884 -10.5319 8.49548
rtibia 101.266
rfoot -13.9055 -12.84
rtoes 4.42169
lfemur -44.6086 -1.38326 -30.3137
ltibia 70.9172
lfoot -16.2328 0.444671
ltoes 8.82442
